<svg width="16" height="16" viewBox="0 0 16 16" fill="none" xmlns="http://www.w3.org/2000/svg">
<path d="M10.4293 6.34536L8.58585 6.92436C8.19395 7.04152 7.77575 7.04152 7.38385 6.92436L5.55559 6.39028C5.53274 6.38317 5.50851 6.38153 5.4849 6.38547C5.46128 6.38941 5.43894 6.39883 5.41972 6.41296C5.4005 6.42708 5.38494 6.44551 5.37432 6.46673C5.3637 6.48795 5.35832 6.51136 5.35863 6.53503V8.73623C5.35934 8.76885 5.37046 8.80042 5.39042 8.82642C5.41038 8.85242 5.43814 8.87151 5.46974 8.88098L7.70707 9.54484C7.88465 9.59969 8.07494 9.59969 8.25252 9.54484L10.5151 8.83107C10.5466 8.82215 10.5742 8.80304 10.5934 8.7768C10.6127 8.75056 10.6224 8.71869 10.6212 8.68632V6.49011C10.6203 6.46733 10.6143 6.44502 10.6037 6.42479C10.5931 6.40455 10.578 6.38689 10.5597 6.37306C10.5414 6.35923 10.5202 6.34957 10.4976 6.34479C10.4751 6.34 10.4517 6.34019 10.4293 6.34536Z" fill="black"/>
<path d="M14.1666 1.61851L9.30301 0.190975C8.45344 -0.0636583 7.54656 -0.0636583 6.69699 0.190975L1.83343 1.61851C1.3017 1.78413 0.837256 2.11298 0.507567 2.5573C0.177878 3.00162 0.000121344 3.53826 0.000121344 4.08925V11.8858C-0.00528316 12.441 0.169974 12.9833 0.500052 13.4326C0.830131 13.882 1.29756 14.2146 1.83343 14.3815L6.69699 15.809C7.54656 16.0637 8.45344 16.0637 9.30301 15.809L14.1666 14.3815C14.7024 14.2146 15.1699 13.882 15.4999 13.4326C15.83 12.9833 16.0053 12.441 15.9999 11.8858V4.08925C15.9999 3.53826 15.8221 3.00162 15.4924 2.5573C15.1627 2.11298 14.6983 1.78413 14.1666 1.61851ZM12.2525 9.18046C12.253 9.42477 12.1736 9.66271 12.0262 9.8588C11.8788 10.0549 11.6711 10.1986 11.4343 10.2686L8.58585 11.1071C8.20543 11.2205 7.79962 11.2205 7.4192 11.1071L5.50509 10.5381C5.48863 10.5335 5.47132 10.5327 5.45449 10.5358C5.43767 10.5389 5.4218 10.5458 5.40812 10.5559C5.39443 10.5661 5.3833 10.5792 5.37559 10.5943C5.36788 10.6094 5.36381 10.626 5.36368 10.6429V11.9207C5.36311 11.9816 5.34866 12.0415 5.3214 12.0961C5.29413 12.1506 5.25476 12.1984 5.20621 12.2358C5.15766 12.2733 5.10119 12.2994 5.04101 12.3122C4.98083 12.3251 4.91849 12.3243 4.85863 12.3101L4.04046 12.0705C3.956 12.0466 3.88171 11.9962 3.82885 11.9268C3.77599 11.8575 3.74745 11.773 3.74754 11.6861V5.7414C3.74714 5.56465 3.78859 5.39027 3.86856 5.23218C3.94854 5.07409 4.06483 4.93669 4.20813 4.83095C4.35143 4.72521 4.51778 4.65408 4.69387 4.62322C4.86996 4.59237 5.05092 4.60266 5.22226 4.65328L7.72223 5.37703C7.89847 5.42934 8.08638 5.42934 8.26262 5.37703L10.7626 4.60336C10.9359 4.54516 11.1209 4.52885 11.3019 4.55578C11.483 4.58271 11.6549 4.6521 11.8032 4.75815C11.9516 4.8642 12.0721 5.00383 12.1546 5.16534C12.2372 5.32685 12.2794 5.50555 12.2777 5.68649L12.2525 9.18046Z" fill="black"/>
</svg>
